<svg xmlns="http://www.w3.org/2000/svg" width="284" height="81" viewBox="0 0 284 81"><path fill="#bd10e0" d="M44.90 58.70L29.30 36.20L10.90 61.90Q9.90 62.10 8.90 62.10L8.90 62.10Q6.90 62.10 5.70 61.15Q4.50 60.20 4.50 58.50L4.50 58.50Q4.50 57.20 5.15 56.10Q5.80 55.00 6.80 53.60L6.80 53.60L24.40 30.60L4.90 4Q5.40 2.30 6.55 1.15Q7.70 0 9.70 0L9.70 0Q11.30 0 12.40 0.95Q13.50 1.90 14.70 3.60L14.70 3.60L29.50 24.80L47.20 0.30Q47.70 0.20 48.20 0.15Q48.70 0.10 49.30 0.10L49.30 0.10Q51.40 0.10 52.45 1.10Q53.50 2.10 53.50 3.60L53.50 3.60Q53.50 4.70 52.95 5.75Q52.40 6.80 51.60 7.90L51.60 7.90Q47.40 13.50 43.10 19.10Q38.80 24.70 34.30 30.40L34.30 30.40L54.40 58.20Q53.90 59.90 52.80 61.00Q51.70 62.10 49.80 62.10L49.80 62.10Q48.20 62.10 47.15 61.30Q46.10 60.50 44.90 58.70L44.90 58.70ZM86.30 62.70L86.30 62.70Q82.80 62.70 79.70 61.90Q76.60 61.10 74.60 60.00L74.60 60.00L74.60 79.40Q74.10 79.60 73.10 79.85Q72.10 80.10 70.90 80.10L70.90 80.10Q66.60 80.10 66.60 76.40L66.60 76.40L66.60 23.60Q66.60 21.60 67.30 20.40Q68 19.20 70.20 17.90L70.20 17.90Q72.90 16.40 76.65 15.15Q80.40 13.90 85.20 13.90L85.20 13.90Q90.10 13.90 94.45 15.30Q98.80 16.70 101.95 19.65Q105.10 22.60 106.95 27.20Q108.80 31.80 108.80 38.20L108.80 38.20Q108.80 44.40 107.15 49.00Q105.50 53.60 102.50 56.65Q99.50 59.70 95.35 61.20Q91.20 62.70 86.30 62.70ZM85.20 56.10L85.20 56.10Q92.20 56.10 96.45 51.85Q100.70 47.60 100.70 38.20L100.70 38.20Q100.70 33.30 99.45 29.90Q98.20 26.50 96.05 24.40Q93.90 22.30 91.10 21.40Q88.30 20.50 85.20 20.50L85.20 20.50Q81.60 20.50 79.10 21.40Q76.60 22.30 74.60 23.40L74.60 23.40L74.60 52.90Q76.50 54.30 79.10 55.20Q81.70 56.10 85.20 56.10ZM157.70 38.70L126.90 43Q129.60 56.10 144.10 56.10L144.10 56.10Q148.30 56.10 151.70 54.70Q155.10 53.30 157.10 51.70L157.10 51.70Q159.50 53.10 159.50 55.50L159.50 55.50Q159.50 56.90 158.25 58.20Q157 59.50 154.85 60.50Q152.70 61.50 149.85 62.10Q147 62.70 143.70 62.70L143.70 62.70Q132.10 62.70 125.35 56.40Q118.60 50.10 118.60 38L118.60 38Q118.60 32.30 120.25 27.85Q121.90 23.40 124.85 20.30Q127.80 17.20 131.90 15.55Q136 13.90 140.80 13.90L140.80 13.90Q145.30 13.90 149.10 15.40Q152.90 16.90 155.65 19.65Q158.40 22.40 159.95 26.15Q161.50 29.90 161.50 34.40L161.50 34.40Q161.50 36.60 160.50 37.55Q159.50 38.50 157.70 38.70L157.70 38.70ZM140.70 20.40L140.70 20.40Q134.60 20.40 130.60 24.65Q126.60 28.90 126.40 36.80L126.40 36.80L153.90 33Q153.40 27.50 150.05 23.95Q146.70 20.40 140.70 20.40ZM181.10 23.80L181.10 61.20Q180.60 61.40 179.60 61.65Q178.60 61.90 177.40 61.90L177.40 61.90Q173.10 61.90 173.10 58.30L173.10 58.30L173.10 24.40Q173.10 22.10 173.95 20.75Q174.80 19.40 176.80 18.10L176.80 18.10Q179.40 16.40 183.85 15.15Q188.30 13.90 193.90 13.90L193.90 13.90Q201.90 13.90 201.90 17.90L201.90 17.90Q201.90 18.90 201.60 19.75Q201.30 20.60 200.80 21.20L200.80 21.20Q199.80 21 198.20 20.80Q196.60 20.60 195.00 20.60L195.00 20.60Q190.40 20.60 186.90 21.55Q183.40 22.50 181.10 23.80L181.10 23.80ZM227.10 62.70L227.10 62.70Q220.10 62.70 215.75 59.60Q211.40 56.50 211.40 49.30L211.40 49.30L211.40 1.80Q211.90 1.60 212.95 1.35Q214 1.10 215.20 1.10L215.20 1.10Q219.40 1.10 219.40 4.70L219.40 4.70L219.40 16.20L235.80 16.20Q236.10 16.70 236.40 17.55Q236.70 18.40 236.70 19.40L236.70 19.40Q236.70 22.80 233.70 22.80L233.70 22.80L219.40 22.80L219.40 48.80Q219.40 52.80 221.65 54.45Q223.90 56.10 228 56.10L228 56.10Q229.70 56.10 231.80 55.50Q233.90 54.90 235.30 54.10L235.30 54.10Q235.90 54.70 236.40 55.60Q236.90 56.50 236.90 57.70L236.90 57.70Q236.90 59.90 234.30 61.30Q231.70 62.70 227.10 62.70ZM265 56.20L265 56.20Q269.20 56.20 271.95 55.35Q274.70 54.50 275.90 53.70L275.90 53.70L275.90 39.20L263.50 40.50Q258.30 41 255.80 42.85Q253.30 44.70 253.30 48.30L253.30 48.30Q253.30 52.10 256.20 54.15Q259.10 56.20 265 56.20ZM264.90 13.90L264.90 13.90Q273.60 13.90 278.70 17.80Q283.80 21.70 283.80 30.10L283.80 30.10L283.80 53.80Q283.80 56.00 282.95 57.15Q282.10 58.30 280.40 59.30L280.40 59.30Q278 60.70 274.05 61.75Q270.10 62.80 265 62.80L265 62.80Q255.60 62.80 250.45 59.10Q245.30 55.40 245.30 48.40L245.30 48.40Q245.30 41.80 249.60 38.45Q253.90 35.10 261.70 34.30L261.70 34.30L275.90 32.90L275.90 30.10Q275.90 25.10 272.90 22.80Q269.90 20.50 264.80 20.50L264.80 20.50Q260.60 20.50 256.90 21.70Q253.20 22.90 250.30 24.40L250.30 24.40Q249.50 23.70 248.85 22.80Q248.20 21.90 248.20 20.80L248.20 20.80Q248.20 19.40 248.90 18.50Q249.60 17.60 251.10 16.80L251.10 16.80Q253.80 15.40 257.30 14.65Q260.80 13.90 264.90 13.90Z"></path></svg>