<?xml version="1.0" standalone="no"?>
<!DOCTYPE svg PUBLIC "-//W3C//DTD SVG 1.0//EN" "http://www.w3.org/TR/2001/REC-SVG-20010904/DTD/svg10.dtd">
<svg xmlns="http://www.w3.org/2000/svg" xmlns:xlink="http://www.w3.org/1999/xlink" id="body_1" width="130" height="37">

<g transform="matrix(0.45679015 0 0 0.45679015 0.13580474 -0)">
    <path d="M44.9 58.7L29.3 36.2L10.9 61.9C 10.233334 62.033337 9.566667 62.100002 8.9 62.1C 7.566667 62.100002 6.5000005 61.783337 5.7 61.15C 4.9 60.51667 4.5 59.633335 4.5 58.5C 4.5 57.633335 4.7166667 56.833336 5.15 56.1C 5.5833335 55.36667 6.1333337 54.533333 6.8 53.6L6.8 53.6L24.4 30.6L4.9 4C 5.2333336 2.8666668 5.783334 1.9166666 6.55 1.15C 7.3166666 0.38333333 8.366667 0 9.7 0C 10.766667 0 11.666667 0.31666666 12.4 0.95C 13.133333 1.5833333 13.9 2.4666667 14.7 3.6L14.7 3.6L29.5 24.8L47.2 0.3C 47.533333 0.23333335 47.86667 0.18333334 48.2 0.15C 48.533333 0.116666675 48.9 0.10000001 49.3 0.1C 50.700005 0.10000001 51.750004 0.43333334 52.45 1.1C 53.15 1.7666667 53.5 2.6 53.5 3.6C 53.5 4.333333 53.31667 5.05 52.95 5.75C 52.583336 6.450001 52.133335 7.166667 51.6 7.9C 48.800003 11.633333 45.966667 15.366667 43.1 19.1C 40.233334 22.833334 37.3 26.6 34.3 30.4L34.3 30.4L54.4 58.2C 54.06667 59.333336 53.533333 60.26667 52.8 61C 52.066666 61.733337 51.066666 62.100002 49.8 62.1C 48.733337 62.100002 47.850002 61.833336 47.15 61.3C 46.45 60.76667 45.7 59.9 44.9 58.7zM86.3 62.7C 83.966675 62.700005 81.76667 62.43334 79.7 61.9C 77.63333 61.36667 75.933334 60.733334 74.6 60L74.6 60L74.6 79.4C 74.26667 79.53333 73.76667 79.683334 73.1 79.85C 72.433334 80.01667 71.7 80.100006 70.9 80.1C 68.03334 80.100006 66.600006 78.86667 66.6 76.4L66.6 76.4L66.6 23.6C 66.600006 22.266666 66.833336 21.2 67.3 20.4C 67.76667 19.600002 68.73334 18.766668 70.2 17.9C 72 16.9 74.15 15.983334 76.65 15.15C 79.15 14.316667 82 13.9 85.2 13.9C 88.46667 13.9 91.55 14.366667 94.45 15.3C 97.350006 16.233334 99.850006 17.683334 101.95 19.65C 104.05 21.616669 105.71667 24.133335 106.95 27.2C 108.18334 30.266668 108.80001 33.933334 108.8 38.2C 108.80001 42.333336 108.25001 45.933334 107.15 49C 106.05 52.066666 104.5 54.61667 102.5 56.65C 100.5 58.68334 98.11667 60.200005 95.35 61.2C 92.58333 62.200005 89.566666 62.700005 86.3 62.7zM85.2 56.1C 89.86667 56.100002 93.61667 54.683334 96.45 51.85C 99.28333 49.016666 100.7 44.466667 100.7 38.2C 100.7 34.933334 100.28333 32.166668 99.45 29.9C 98.61667 27.633335 97.48334 25.800001 96.05 24.4C 94.61667 23 92.96667 22 91.1 21.4C 89.23334 20.8 87.26667 20.5 85.2 20.5C 82.8 20.5 80.76667 20.8 79.1 21.4C 77.433334 22 75.933334 22.666668 74.6 23.4L74.6 23.4L74.6 52.9C 75.86667 53.833336 77.36667 54.600002 79.1 55.2C 80.833336 55.800003 82.86667 56.100002 85.2 56.1zM157.7 38.7L126.9 43C 128.70001 51.733337 134.43335 56.100002 144.1 56.1C 146.90001 56.100002 149.43333 55.633335 151.7 54.7C 153.96667 53.766666 155.76668 52.766666 157.1 51.7C 158.70001 52.633335 159.5 53.9 159.5 55.5C 159.5 56.433334 159.08334 57.333336 158.25 58.2C 157.41667 59.06667 156.28334 59.833336 154.85 60.5C 153.41667 61.166668 151.75 61.7 149.85 62.1C 147.95001 62.500004 145.9 62.700005 143.7 62.7C 135.96667 62.700005 129.85 60.600006 125.35 56.4C 120.85 52.200005 118.6 46.06667 118.6 38C 118.6 34.2 119.15 30.816666 120.25 27.85C 121.350006 24.883335 122.88334 22.366667 124.85 20.3C 126.81667 18.233334 129.16667 16.650002 131.9 15.55C 134.63333 14.45 137.6 13.9 140.8 13.9C 143.8 13.9 146.56668 14.4 149.1 15.4C 151.63333 16.4 153.81667 17.816666 155.65 19.65C 157.48334 21.483334 158.91666 23.650002 159.95 26.15C 160.98334 28.650002 161.5 31.400002 161.5 34.4C 161.5 35.86667 161.16667 36.916664 160.5 37.55C 159.83334 38.183334 158.9 38.56667 157.7 38.7zM140.7 20.4C 136.63333 20.400002 133.26668 21.816668 130.6 24.65C 127.933334 27.483334 126.53334 31.533333 126.4 36.8L126.4 36.8L153.9 33C 153.56667 29.333334 152.28333 26.316668 150.05 23.95C 147.81668 21.583334 144.70001 20.400002 140.7 20.4zM181.1 23.8L181.1 61.2C 180.76668 61.333336 180.26668 61.483337 179.6 61.65C 178.93335 61.816673 178.20001 61.900005 177.4 61.9C 174.53334 61.900005 173.1 60.700005 173.1 58.3L173.1 58.3L173.1 24.4C 173.1 22.866667 173.38335 21.650002 173.95 20.75C 174.51668 19.85 175.46667 18.966667 176.8 18.1C 178.53333 16.966667 180.88333 15.983334 183.85 15.15C 186.81668 14.316667 190.16667 13.9 193.9 13.9C 199.23334 13.9 201.90001 15.233334 201.9 17.9C 201.90001 18.566668 201.80002 19.183334 201.6 19.75C 201.40002 20.316668 201.13335 20.800001 200.8 21.2C 200.13335 21.066668 199.26668 20.933334 198.2 20.8C 197.13335 20.666668 196.06668 20.6 195 20.6C 191.93333 20.6 189.23334 20.916668 186.9 21.55C 184.56667 22.183334 182.63333 22.933334 181.1 23.8zM227.1 62.7C 222.43335 62.700005 218.65001 61.66667 215.75 59.6C 212.85 57.533333 211.4 54.100002 211.4 49.3L211.4 49.3L211.4 1.8C 211.73334 1.6666667 212.25 1.5166668 212.95 1.35C 213.65001 1.1833334 214.40001 1.1 215.2 1.1C 218 1.1 219.4 2.3 219.4 4.7L219.4 4.7L219.4 16.2L235.8 16.2C 236.00002 16.533335 236.20001 16.983334 236.4 17.55C 236.6 18.116667 236.70001 18.733334 236.7 19.4C 236.70001 21.666666 235.70001 22.8 233.7 22.8L233.7 22.8L219.4 22.8L219.4 48.8C 219.4 51.466667 220.15 53.350002 221.65 54.45C 223.15 55.550003 225.26666 56.100002 228 56.1C 229.13333 56.100002 230.4 55.9 231.8 55.5C 233.20001 55.100002 234.36667 54.633335 235.3 54.1C 235.7 54.5 236.06667 55 236.4 55.6C 236.73334 56.2 236.9 56.9 236.9 57.7C 236.9 59.166668 236.03334 60.36667 234.3 61.3C 232.56668 62.233337 230.16669 62.700005 227.1 62.7zM265 56.2C 267.80002 56.2 270.1167 55.916668 271.95 55.35C 273.78336 54.783337 275.1 54.233337 275.9 53.7L275.9 53.7L275.9 39.2L263.5 40.5C 260.03333 40.833336 257.46667 41.61667 255.8 42.85C 254.13333 44.083336 253.3 45.9 253.3 48.3C 253.3 50.833336 254.26668 52.783333 256.2 54.15C 258.13336 55.51667 261.06668 56.2 265 56.2zM264.9 13.9C 270.7 13.9 275.30002 15.2 278.7 17.8C 282.1 20.400002 283.8 24.5 283.8 30.1L283.8 30.1L283.8 53.8C 283.8 55.26667 283.51666 56.38334 282.95 57.15C 282.38336 57.91667 281.53336 58.633335 280.4 59.3C 278.80002 60.233334 276.68335 61.050003 274.05 61.75C 271.4167 62.450005 268.40002 62.800003 265 62.8C 258.73334 62.800003 253.88335 61.56667 250.45 59.1C 247.01668 56.633335 245.30002 53.06667 245.3 48.4C 245.30002 44 246.73334 40.683334 249.6 38.45C 252.46667 36.216667 256.5 34.833332 261.7 34.3L261.7 34.3L275.9 32.9L275.9 30.1C 275.9 26.766666 274.9 24.333334 272.9 22.8C 270.9 21.266666 268.2 20.5 264.8 20.5C 262 20.5 259.36667 20.900002 256.9 21.7C 254.43333 22.5 252.23334 23.4 250.3 24.4C 249.76668 23.933334 249.28336 23.400002 248.85 22.8C 248.41669 22.2 248.20001 21.533333 248.2 20.8C 248.20001 19.866667 248.43335 19.1 248.9 18.5C 249.36667 17.900002 250.1 17.333334 251.1 16.8C 252.90002 15.866667 254.96667 15.15 257.3 14.65C 259.63333 14.15 262.1667 13.9 264.9 13.9z" stroke="none" fill="#9013FE" fill-rule="nonzero" />
</g>
</svg>