<?xml version="1.0" encoding="UTF-8" standalone="no"?>
<svg
   xmlns:dc="http://purl.org/dc/elements/1.1/"
   xmlns:cc="http://creativecommons.org/ns#"
   xmlns:rdf="http://www.w3.org/1999/02/22-rdf-syntax-ns#"
   xmlns:svg="http://www.w3.org/2000/svg"
   xmlns="http://www.w3.org/2000/svg"
   xmlns:sodipodi="http://sodipodi.sourceforge.net/DTD/sodipodi-0.dtd"
   xmlns:inkscape="http://www.inkscape.org/namespaces/inkscape"
   width="320"
   height="100"
   viewBox="0 0 320 100"
   class="navbar-logo"
   version="1.1"
   id="svg19"
   sodipodi:docname="logo.svg">
  <metadata
     id="metadata23">
    <rdf:RDF>
      <cc:Work
         rdf:about="">
        <dc:format>image/svg+xml</dc:format>
        <dc:type
           rdf:resource="http://purl.org/dc/dcmitype/StillImage" />
      </cc:Work>
    </rdf:RDF>
  </metadata>
  <sodipodi:namedview
     pagecolor="#ffffff"
     bordercolor="#666666"
     borderopacity="1"
     objecttolerance="10"
     gridtolerance="10"
     guidetolerance="10"
     inkscape:pageopacity="0"
     inkscape:pageshadow="2"
     inkscape:window-width="640"
     inkscape:window-height="480"
     id="namedview21" />
  <defs
     id="SvgjsDefs1001" />
  <g
     id="SvgjsG1007"
     featurekey="symbolFeature-0"
     transform="matrix(1.1778564453125,0,0,1.1778564453125,-8.89281594052918,-8.89281594052918)"
     fill="#6a2c70">
    <g
       id="g13">
      <path
         fill="none"
         d="M85.262,40.783l-3.75-3.75H62.023l-5.74,9.943H43.717l-6.281-10.88l6.281-10.881h12.566l5.74,9.944h17.615   L59.217,14.738c-2.463-2.462-5.734-3.817-9.217-3.817c-3.482,0-6.755,1.355-9.217,3.817L14.739,40.783   C12.277,43.245,10.92,46.517,10.92,50c0,3.483,1.356,6.754,3.818,9.217l4.123,4.123h19.115l5.74-9.943h12.566l6.281,10.881   l-6.281,10.881H43.717l-5.74-9.945H20.735l20.048,20.049c2.462,2.461,5.734,3.818,9.217,3.818c3.481,0,6.754-1.357,9.217-3.818   l26.045-26.045C87.723,56.754,89.08,53.48,89.08,50C89.08,46.517,87.723,43.245,85.262,40.783z M71.844,58.32h-9.607l-4.182-7.242   H41.946l-4.182,7.242h-9.607L23.353,50l4.804-8.32h9.607l4.182,7.243h16.109l4.182-7.243h9.607L76.646,50L71.844,58.32z"
         id="path3" />
      <polygon
         fill="none"
         points="54.336,71.787 58.672,64.277 54.336,56.768 45.664,56.768 41.328,64.277 45.664,71.787  "
         id="polygon5" />
      <polygon
         fill="none"
         points="45.664,28.586 41.328,36.096 45.664,43.606 54.336,43.606 58.672,36.096 54.336,28.586  "
         id="polygon7" />
      <path
         d="M87.645,38.4L61.6,12.355C58.5,9.256,54.383,7.55,50,7.55c-4.382,0-8.502,1.706-11.6,4.805L12.356,38.4   C9.256,41.498,7.55,45.618,7.55,50c0,4.383,1.706,8.5,4.806,11.6L38.4,87.645c3.097,3.098,7.218,4.805,11.6,4.805   c4.383,0,8.502-1.707,11.6-4.805L87.645,61.6c3.098-3.098,4.805-7.217,4.805-11.6C92.449,45.618,90.742,41.497,87.645,38.4z    M85.262,59.217L59.217,85.262C56.754,87.723,53.48,89.08,50,89.08c-3.482,0-6.755-1.357-9.217-3.818L20.735,65.213h17.242   l5.74,9.945h12.566l6.281-10.881l-6.281-10.881H43.717l-5.74,9.943H18.862l-4.123-4.123C12.277,56.754,10.92,53.482,10.92,50   c0-3.482,1.356-6.755,3.818-9.217l26.044-26.044c2.462-2.462,5.734-3.817,9.217-3.817c3.483,0,6.754,1.355,9.217,3.817   L79.639,35.16H62.023l-5.74-9.944H43.717l-6.281,10.881l6.281,10.88h12.566l5.74-9.943h19.488l3.75,3.75   c2.461,2.462,3.818,5.734,3.818,9.217C89.08,53.48,87.723,56.754,85.262,59.217z M41.328,64.277l4.336-7.51h8.672l4.336,7.51   l-4.336,7.51h-8.672L41.328,64.277z M58.672,36.096l-4.336,7.51h-8.672l-4.336-7.51l4.336-7.51h8.672L58.672,36.096z"
         id="path9" />
      <polygon
         points="62.236,41.679 58.055,48.922 41.946,48.922 37.764,41.679 28.157,41.679 23.353,50 28.157,58.32 37.764,58.32    41.946,51.078 58.055,51.078 62.236,58.32 71.844,58.32 76.646,50 71.844,41.679  "
         id="polygon11" />
    </g>
  </g>
  <g
     id="SvgjsG1008"
     featurekey="nameFeature-0"
     transform="matrix(1.6567264795303345,0,0,1.6567264795303345,119.53611465201627,0.04108447128580295)"
     fill="#6a2c70">
    <path
       d="M22.76 40 l-9.48 -12.76 l-9.4 12.76 l-3.6 0 l11.2 -14.92 l-10.68 -14.24 l3.56 0 l9 12 l8.92 -12 l3.56 0 l-10.68 14.2 l11.16 14.96 l-3.56 0 z M49.8 30.04 c0 3.6 -1.56 6.84 -4.44 8.8 c-1.44 0.96 -3.08 1.44 -4.92 1.44 c-3.24 0 -5.8 -1.44 -7.64 -4.36 l0 13.88 l-2.92 0 l0 -29.68 l2.84 0 l0 4.32 c2.04 -3.12 4.6 -4.68 7.72 -4.68 c2.76 0 5.24 1.24 6.84 3.2 c1.56 1.92 2.52 4.48 2.52 7.08 z M39.88 37.76 c2.12 0 3.8 -0.76 5.08 -2.2 c1.24 -1.48 1.88 -3.28 1.88 -5.44 c0 -2.8 -1.08 -5.24 -3.24 -6.68 c-1.04 -0.72 -2.32 -1.08 -3.72 -1.08 c-4.04 -0.08 -7.24 3.68 -7.12 7.64 c0 2.08 0.64 3.92 2 5.44 c1.36 1.56 3.04 2.32 5.12 2.32 z M72.48 30.96 l-16.08 0 c0.12 1.96 0.84 3.56 2.2 4.84 c1.36 1.32 3 1.96 4.92 1.96 c3 0 5.24 -1.48 6.16 -4.24 l2.56 0.8 c-0.56 1.88 -1.64 3.36 -3.24 4.44 c-1.6 1.04 -3.4 1.6 -5.44 1.6 c-1.88 0 -3.6 -0.48 -5.16 -1.4 s-2.76 -2.16 -3.6 -3.76 c-0.88 -1.56 -1.32 -3.28 -1.32 -5.16 c0 -1.8 0.4 -3.48 1.24 -5.04 c0.8 -1.6 1.96 -2.84 3.48 -3.8 c1.48 -0.96 3.16 -1.44 4.96 -1.44 c1.96 0 3.68 0.44 5.12 1.36 c1.44 0.88 2.52 2.12 3.2 3.64 c0.72 1.52 1.04 3.24 1.04 5.24 c0 0.2 0 0.52 -0.04 0.96 z M56.44 28.48 l13.16 0 c-0.2 -1.84 -0.88 -3.32 -2 -4.48 c-1.12 -1.12 -2.6 -1.68 -4.44 -1.68 c-1.72 0 -3.16 0.6 -4.44 1.8 c-1.28 1.24 -2.04 2.68 -2.28 4.36 z M77.52000000000001 20.12 l2.84 0 l0 3.92 c0.96 -1.96 2.56 -3.28 4.08 -3.84 c0.76 -0.28 1.56 -0.4 2.36 -0.4 c0.44 0 0.76 0 0.96 0.08 l0 3.08 c-0.32 -0.08 -0.72 -0.08 -1.12 -0.08 c-4.72 0 -6.2 3.88 -6.2 7.4 l0 9.72 l-2.92 0 l0 -19.88 z M98.64 40.16 c-4.32 0 -5.64 -2.4 -5.64 -5.32 l0 -12.16 l-3.68 0 l0 -2.56 l3.68 0 l0 -5.72 l2.88 0 l0 5.72 l5.04 0 l0 2.56 l-5.04 0 l0 12.12 c0 1.84 1.08 2.8 3.24 2.8 c0.68 0 1.28 -0.08 1.8 -0.16 l0 2.4 c-0.64 0.2 -1.4 0.32 -2.28 0.32 z M112.32000000000001 28.52 l5.52 0 l0 -1.32 c0 -3.2 -1.76 -4.84 -5.08 -4.84 c-1.6 0 -2.96 0.52 -3.76 1.32 s-1.28 1.72 -1.44 2.72 l-2.8 -0.6 c0.04 -1 1 -2.96 2.8 -4.4 c1.2 -0.92 3.12 -1.64 5.28 -1.64 c3.64 0 6.04 1.36 7.24 4.12 c0.4 0.92 0.6 2 0.6 3.28 l0 5.6 c0 3.32 0.12 5.76 0.32 7.24 l-2.88 0 c-0.16 -0.88 -0.28 -2.04 -0.28 -3.48 l0 0 c-1.68 2.56 -3.88 3.84 -6.72 3.84 c-1.96 0 -3.6 -0.56 -4.8 -1.68 c-1.24 -1.08 -1.88 -2.48 -1.88 -4.2 l0 -0.2 c0 -4.32 4.32 -5.76 7.88 -5.76 z M117.84 31.6 l0 -0.68 l-5.56 0 c-1.16 0 -2.24 0.2 -3.24 0.68 c-1 0.44 -1.68 1.4 -1.68 2.64 c0 1.12 0.4 1.96 1.24 2.6 c0.8 0.64 1.8 0.96 3.04 0.96 c1.76 0 3.24 -0.6 4.44 -1.76 c1.16 -1.12 1.76 -2.64 1.76 -4.44 z"
       id="path16" />
  </g>
</svg>
